<?xml version="1.0"?>
<svg width="1440" height="320" xmlns="http://www.w3.org/2000/svg" xmlns:svg="http://www.w3.org/2000/svg">
 <g class="layer">
  <title>Layer 1</title>
  <path d="m1,108.17l47.93,-0.94c47.93,-1.01 143.8,-2.79 239.67,-7.6c95.87,-4.81 186.74,-3.74 282.61,-0.94c95.87,2.9 196.73,7.53 292.59,10.43c95.87,2.79 191.73,-4.68 287.6,-8.54c95.87,-3.79 191.73,-3.79 239.67,-3.79l47.93,0l0,-22.78l-47.93,0c-47.93,0 -143.8,0 -239.67,0c-95.87,0 -191.73,0 -287.6,0c-95.87,0 -191.73,0 -287.6,0c-95.87,0 -191.73,0 -287.6,0c-95.87,0 -191.73,0 -239.67,0l-47.93,0l0,34.18l0,-0.01z" fill="#9eb9ec" fill-opacity="0.5" id="svg_1"/>
  <rect fill="#9eb9ec" fill-opacity="0.5" height="73" id="svg_2" width="1438" x="1" y="1"/>
 </g>
</svg>